<?xml version="1.0" encoding="UTF-8"?>
<!-- Uploaded to: SVG Repo, www.svgrepo.com, Generator: SVG Repo Mixer Tools -->
<svg fill="#000000" width="800px" height="800px" version="1.1" viewBox="144 144 512 512" xmlns="http://www.w3.org/2000/svg">
 <path d="m552.2 305.54h-92.852c-6.9531-0.027344-13.617-2.7969-18.539-7.7109l-59.352-59.348c-10.805-10.852-25.492-16.945-40.809-16.926h-92.852c-15.273 0.011719-29.922 6.0703-40.738 16.852-10.82 10.781-16.93 25.41-16.996 40.684v241.83c0.066406 15.273 6.1758 29.898 16.996 40.68 10.816 10.781 25.465 16.84 40.738 16.855h304.4c15.273-0.015625 29.922-6.0742 40.742-16.855 10.816-10.781 16.93-25.406 16.996-40.68v-157.64c-0.015625-15.309-6.1016-29.984-16.926-40.809-10.824-10.824-25.504-16.914-40.812-16.926zm26.25 215.38c-0.015625 6.957-2.7852 13.625-7.7031 18.543-4.9219 4.9219-11.59 7.6914-18.547 7.7031h-304.4c-6.957-0.011718-13.625-2.7812-18.547-7.7031-4.918-4.918-7.6875-11.586-7.6992-18.543v-241.83c0.011719-6.9609 2.7812-13.629 7.6992-18.547 4.9219-4.9219 11.59-7.6914 18.547-7.7031h92.852c6.957 0.027343 13.617 2.7969 18.543 7.707l59.348 59.551c10.793 10.871 25.488 16.969 40.809 16.93h92.852c6.957 0.011718 13.625 2.7812 18.547 7.7031 4.918 4.918 7.6875 11.586 7.7031 18.543zm-52.5-78.949c0.015625 4.1875-1.6367 8.2109-4.5938 11.18-2.9531 2.9648-6.9688 4.6367-11.156 4.6406s-8.207-1.6562-11.168-4.6172c-2.9609-2.9609-4.625-6.9805-4.6172-11.168 0.003907-4.1875 1.6719-8.2031 4.6406-11.156 2.9688-2.957 6.9883-4.6094 11.176-4.5977 4.168 0.015625 8.1562 1.6758 11.102 4.6211 2.9453 2.9453 4.6055 6.9336 4.6172 11.098zm0-57.688v0.003906c0 4.1836-1.6602 8.1953-4.6211 11.156-2.9609 2.957-6.9766 4.6172-11.164 4.6094-4.1836-0.003906-8.1953-1.6719-11.152-4.6328-2.9531-2.9648-4.6094-6.9844-4.5977-11.168 0.007813-4.1836 1.6797-8.1953 4.6484-11.148 2.9648-2.9492 6.9844-4.6016 11.168-4.5859 4.1797 0 8.1836 1.6602 11.133 4.6211 2.9492 2.957 4.6016 6.9688 4.5859 11.148zm0 115.42v0.003906c0.015625 4.1875-1.6367 8.207-4.5938 11.176-2.9531 2.9688-6.9688 4.6367-11.156 4.6445-4.1875 0.003906-8.207-1.6602-11.168-4.6211-2.9609-2.9609-4.625-6.9766-4.6172-11.168 0.003907-4.1875 1.6719-8.1992 4.6406-11.156 2.9688-2.9531 6.9883-4.6094 11.176-4.5938 4.168 0.011719 8.1562 1.6719 11.102 4.6172 2.9453 2.9453 4.6055 6.9375 4.6172 11.102z"/>
</svg>