<svg height="64" viewBox="0 0 63 64" width="63" xmlns="http://www.w3.org/2000/svg"><path d="m38.575 52.965-14.533-8.391 1.44-2.491 14.531 8.388z"/><path d="m53.406 57.744c4.202-3.962 6.859-9.534 6.859-15.748 0-7.662-4.021-14.567-10.277-18.448l7.005-12.133-1.101-.638 1.733-3.001-4.53-2.616-1.732 2.998-1.163-.669-17.227 29.844 1.508.871-2.137 3.699 3.78 2.181 2.137-3.695 1.504.87 7.243-12.55c4.447 2.83 7.292 7.79 7.292 13.287 0 8.686-7.067 15.748-15.753 15.748-5.812 0-12.695 0-12.695 0v5.963h35.733v-5.963c-.001-.001-5.289-.001-8.179-.001z"/><path d="m16.27 1.155c-8.056 0-14.611 6.556-14.611 14.609 0 8.057 6.556 14.611 14.611 14.611 8.053 0 14.607-6.554 14.607-14.611 0-8.053-6.553-14.609-14.607-14.609zm0 27.867c-7.31 0-13.261-5.948-13.261-13.258 0-7.308 5.951-13.258 13.261-13.258 7.306 0 13.256 5.951 13.256 13.258 0 7.31-5.95 13.258-13.256 13.258z"/><path d="m8.707 14.802h2.805c0-.645 0-2.2 0-2.845-.638 0-2.163 0-2.805 0z"/><path d="m16.282 4.27c-6.341 0-11.499 5.161-11.499 11.503 0 6.34 5.158 11.495 11.499 11.495 6.338 0 11.495-5.155 11.495-11.495 0-6.342-5.157-11.503-11.495-11.503zm-8.562 11.531v-4.84h4.805v4.84zm4.949 8.848c-1.314 0-2.382-1.066-2.382-2.382 0-1.32 1.067-2.387 2.382-2.387 1.313 0 2.38 1.067 2.38 2.387 0 1.316-1.066 2.382-2.38 2.382zm2.882-5.293c-1.315 0-2.384-1.066-2.384-2.382s1.068-2.384 2.384-2.384c1.313 0 2.38 1.068 2.38 2.384 0 1.315-1.066 2.382-2.38 2.382zm1.67-9.024c-1.384 0-2.508-1.128-2.508-2.511 0-1.39 1.124-2.509 2.508-2.509 1.385 0 2.507 1.119 2.507 2.509 0 1.383-1.122 2.511-2.507 2.511zm4.161 12.779c-1.321 0-2.386-1.066-2.386-2.384 0-1.316 1.065-2.382 2.386-2.382 1.313 0 2.38 1.066 2.38 2.382 0 1.318-1.066 2.384-2.38 2.384zm.505-7.002c-1.315 0-2.382-1.068-2.382-2.384 0-1.318 1.066-2.384 2.382-2.384 1.318 0 2.386 1.066 2.386 2.384-.001 1.316-1.068 2.384-2.386 2.384z"/></svg>